PathFileType	4	(X/Y/Z)	C:/Users/beibeiliu/ov580/test_trc/User1\sequence.17_training_dense_left.trc
DataRate	CameraRate	NumFrames	NumMarkers	Units	OrigDataRate	OrigDataStartFrame	OrigNumFrames
120	120	22	19	mm	120	37	292
Frame#	Time	ThumbCMC			ThumbMCP			ThumbIP			ThumbTip			IndexMCP			IndexPIP			IndexTip			MiddleMCP			MiddlePIP			MiddleTip			RingMCP			RingPIP			RingTip			PinkyMCP			PinkyPIP			PinkyTip			BackHand1			BackHand2			BackHand3	
		X0	Y0	Z0	X1	Y1	Z1	X2	Y2	Z2	X3	Y3	Z3	X4	Y4	Z4	X5	Y5	Z5	X6	Y6	Z6	X7	Y7	Z7	X8	Y8	Z8	X9	Y9	Z9	X10	Y10	Z10	X11	Y11	Z11	X12	Y12	Z12	X13	Y13	Z13	X14	Y14	Z14	X15	Y15	Z15	X16	Y16	Z16	X17	Y17	Z17	X18	Y18	Z18	
36	0.3	-161.129	41.5469	59.3501	-137.32	37.5107	42.8173	-117.641	40.6977	30.3554	-93.1533	44.3985	26.4973	-168.966	59.9107	-29.075	-169.503	62.7286	-52.6765	-174.223	64.028	-79.3979	-182.568	31.6013	-41.6337	-169.789	-0.855821	-41.3269	-173.971	-5.82985	-1.60835	-202.599	16.2318	-34.1509	-189.037	-13.0786	-24.7286	-187.1	-7.75788	12.8153	-219.66	7.84639	-26.4154	-203.183	-10.4216	-14.4171	-199.351	-1.24348	16.8396	-223.952	51.934	13.5558	-229.065	52.8222	47.2047	-193.905	58.6753	37.578	
37	0.308333	-164.743	46.4953	56.0375	-138.857	45.6097	41.4794	-119.837	49.4495	30.9137	-97.1495	55.5107	27.2494	-173.106	61.3371	-34.1183	-173.414	63.2652	-57.534	-175.347	63.4947	-82.6748	-185.387	30.8735	-40.2564	-169.477	-1.25347	-39.0158	-171.657	-4.1134	-0.714038	-202.687	13.1713	-34.4107	-182.06	-14.0028	-20.8056	-187.438	-8.69483	14.3815	-223.396	6.74785	-25.1341	-202.164	-14.7619	-14.7642	-192.974	-1.50437	12.7099	-222.904	49.9294	15.4378	-235.437	48.6528	46.9858	-194.32	61.8749	35.7253	
38	0.316667	-169.883	51.091	54.8878	-140.679	52.6544	44.4014	-121.187	61.2928	30.5404	-103.944	64.2932	23.8	-176.169	62.0962	-31.0129	-174.564	63.5541	-59.2323	-182.429	60.0698	-84.0516	-181.116	31.9062	-40.5681	-164.998	-0.519204	-36.733	-167.845	-0.185159	4.11171	-196.553	11.3929	-34.7894	-178.232	-13.947	-21.4367	-180.286	-8.80497	12.0679	-217.025	0.993337	-25.3324	-196.942	-16.9806	-14.3177	-193.383	0.0577763	17.8702	-228.11	43.4917	12.8239	-233.149	46.4118	46.2255	-199.523	63.3297	35.2512	
39	0.325	-174.383	55.3558	52.954	-148.853	57.3615	41.3446	-126.546	71.8383	26.0312	-106.8	82.2313	19.1301	-181.998	61.7006	-38.0508	-181.779	61.6058	-58.3518	-185.908	58.1998	-87.545	-183.715	25.8514	-43.7152	-161.093	0.695813	-34.332	-163.468	0.789824	1.5634	-194.335	9.79175	-34.3404	-173.059	-13.2854	-19.0977	-177.06	-7.33047	15.3543	-212.279	-6.18099	-25.532	-189.378	-17.0532	-11.9746	-190.598	1.04109	16.2572	-228.992	41.5594	11.2582	-237.723	38.9651	44.3661	-204.414	61.6582	35.2233	
40	0.333333	-174.414	63.1949	51.782	-152.246	67.3649	38.0793	-134.582	82.7373	25.5801	-116.791	94.8923	20.5276	-188.485	60.2924	-39.6296	-186.114	59.1816	-62.4243	-191.349	52.5998	-86.6485	-182.728	25.5402	-42.7077	-156.81	4.60041	-34.8719	-155.752	10.2802	4.22634	-192.25	4.33614	-33.4087	-165.321	-11.2425	-19.0338	-167.897	-1.43511	16.2836	-207.664	-7.66389	-23.61	-181.867	-18.5466	-10.8817	-179.979	2.51749	15.8356	-232.344	31.4599	7.02173	-238.635	33.0578	44.3768	-212.618	58.5708	32.1093	
41	0.341667	-181.317	67.0522	51.5232	-159.023	70.046	39.5795	-141.652	91.9538	23.8157	-129.205	104.595	17.591	-190.445	60.754	-37.0914	-189.53	57.9111	-60.0215	-192.27	49.1791	-85.4736	-180.157	24.675	-42.3812	-150.522	9.66109	-32.341	-155.555	11.8531	7.21306	-187.722	2.1367	-31.6545	-157.13	-5.2723	-16.9485	-158.967	3.10197	16.3352	-198.98	-15.7332	-20.8546	-171.762	-15.7642	-7.23386	-174.68	3.54147	21.8994	-230.29	25.6692	9.04653	-236.448	27.8361	44.528	-215.306	56.393	33.1948	
42	0.35	-186.866	65.3067	48.1972	-165.1	77.486	39.3904	-152.494	93.1458	19.9451	-141.978	108.648	18.2718	-193.373	61.0001	-36.8839	-190.466	55.507	-63.9926	-190.764	48.7885	-90.5565	-175.708	24.6137	-40.9159	-146.085	12.9619	-29.1012	-150.521	21.6945	11.0105	-180.797	1.50902	-28.5035	-150.327	-5.30968	-11.0333	-152.48	5.96626	19.6665	-189.179	-17.7149	-17.4465	-162.277	-12.5039	-4.33052	-165.654	7.15109	21.6541	-228.561	18.4799	11.8508	-236.111	18.2335	45.8902	-219.584	50.0931	32.5152	
43	0.358333	-193.163	65.9178	49.6584	-172.818	76.104	35.6365	-163.03	94.923	23.3304	-155.449	115.856	18.9214	-196.157	51.2784	-38.5955	-191.783	53.2449	-60.6279	-189.699	44.2854	-85.4038	-176.332	22.3608	-37.4106	-139.752	20.2117	-26.5157	-145.944	22.5221	10.536	-170.649	1.262	-26.4857	-143.185	-0.116349	-11.4558	-146.046	6.80991	23.6215	-177.487	-16.4401	-15.2368	-153.556	-10.8818	-1.10564	-156.568	8.34303	23.3826	-224.28	11.6921	9.88832	-235.253	7.29873	46.0499	-221.981	45.3245	32.6949	
44	0.366667	-199.56	59.6001	50.2645	-179.928	79.5933	36.7673	-173.906	101.322	18.8434	-169.557	114.911	15.2947	-195.869	47.9839	-36.8994	-191.582	44.6604	-59.8681	-187.173	35.6731	-87.4294	-174.369	22.209	-35.5641	-139.705	19.184	-27.7602	-141.814	26.2078	12.6502	-164.347	-2.21704	-23.4756	-137.701	1.75309	-8.77195	-141.396	9.81129	26.2182	-173.76	-20.0835	-10.2208	-146.126	-9.31154	4.8026	-155.323	12.7443	27.655	-220.296	2.63434	13.6159	-230.884	4.86524	46.6762	-224.062	39.6415	28.5115	
45	0.375	-203.522	59.0606	47.6589	-187.407	78.845	32.8898	-182.509	95.7731	19.0636	-181.613	113.213	16.786	-196.777	41.9466	-38.1343	-190.103	39.0516	-62.8193	-184.807	30.2664	-86.837	-169.126	18.78	-35.7434	-135.721	19.5392	-22.1951	-139.141	26.9886	13.4432	-162.965	-0.220753	-22.2677	-134.668	5.37173	-6.77785	-139.838	14.7011	29.3977	-162.418	-21.7282	-7.59743	-140.696	-9.93239	6.69049	-147.952	11.4943	28.8188	-216.634	-7.73761	15.9043	-229.945	-2.14347	49.814	-224.422	31.1347	30.8802	
46	0.383333	-210.25	56.4188	44.1331	-197.425	77.7903	33.6457	-194.774	94.1159	16.3432	-194.872	112.332	7.66426	-198.652	35.0784	-37.47	-191.948	29.7233	-59.8274	-183.149	18.5698	-85.0021	-168.531	16.6369	-35.5743	-134.28	23.7544	-21.8486	-139.52	28.298	14.2846	-159.3	-8.20259	-18.7394	-131.767	7.96032	-4.25278	-136.563	14.1422	29.0581	-156.987	-23.4672	-5.34884	-138.616	-8.41856	4.4141	-146.987	10.1921	29.349	-213.71	-10.1832	15.0191	-225.846	-10.2856	51.1445	-224.997	25.1761	29.8259	
47	0.391667	-215.305	51.9065	45.8592	-204.164	70.0209	29.9193	-208.105	92.7199	11.9238	-210.403	107.997	9.51572	-199.507	27.3867	-40.1169	-192.291	24.9583	-59.3051	-184.156	15.5359	-85.2359	-170.537	10.6979	-32.6577	-135.647	20.4954	-22.0029	-141.714	31.4352	15.575	-154.122	-7.17344	-17.243	-131.779	9.11572	-2.84204	-137.571	17.5489	30.8438	-157.329	-24.2515	-2.76936	-135.927	-6.78511	9.14241	-149.338	11.8899	32.5013	-209.868	-17.1924	20.5502	-224.698	-14.7662	49.1386	-227.45	17.7216	29.9425	
48	0.4	-220.546	44.1117	48.6909	-212.578	64.8338	30.3668	-219.268	85.8105	10.555	-222.132	99.1293	1.87747	-201.768	21.4166	-37.8352	-192.967	15.8897	-59.8158	-184.172	7.83087	-83.0839	-169.486	6.64127	-31.212	-138.432	25.9273	-21.8493	-146.832	35.1983	15.9657	-157.888	-6.49021	-15.9619	-129.77	9.27595	0.829615	-142.926	23.45	30.349	-149.644	-25.0129	-0.549147	-134.861	-1.91408	11.082	-147.503	13.9365	31.1471	-207.569	-24.5327	21.8754	-219.618	-22.4654	50.473	-226.756	6.47227	32.4747	
49	0.408333	-226.117	41.2562	44.4914	-221.277	58.444	29.0964	-228.694	75.6165	9.15762	-237.652	91.1584	1.82583	-202.559	15.5611	-39.7049	-193.977	12.7877	-62.4664	-185.423	5.84991	-83.349	-169.842	6.87331	-32.6548	-141.237	24.8918	-22.1611	-149.165	31.9993	17.9812	-154.286	-7.79493	-16.1888	-132.582	15.2761	-0.28499	-141.463	23.2466	30.3734	-154.586	-24.3592	-0.013002	-136.507	-0.426012	7.61847	-148.682	17.1229	34.4057	-205.564	-27.8453	19.7085	-217.793	-24.317	53.3653	-227.397	2.57854	31.3557	
50	0.416667	-230.591	34.1522	49.5559	-230.79	53.3719	28.552	-239.231	67.8573	10.5161	-251.889	83.0348	4.78046	-207.166	13.5436	-35.3892	-195.705	5.25414	-60.4077	-188.575	1.94452	-81.462	-172.254	5.18775	-31.4151	-144.82	26.8629	-22.9597	-150.472	34.0083	14.0015	-157.459	-7.41183	-16.2959	-133.96	17.0004	-0.0180942	-146.849	26.6603	30.4935	-148.18	-21.4157	0.430871	-133.354	1.08827	8.56036	-150.603	19.9858	29.306	-203.462	-31.2423	23.4361	-215.063	-32.7287	54.1974	-228.225	-4.38057	31.9464	
51	0.425	-234.691	28.6179	49.8356	-239.462	49.0005	31.7327	-247.69	60.4253	10.8488	-264.134	74.4784	1.74723	-208.012	6.52812	-36.9237	-198.451	3.65644	-59.8937	-188.54	-4.16136	-83.5768	-175.095	4.35827	-31.4715	-151.681	29.0716	-27.5276	-157.668	36.0874	16.5065	-158.81	-4.35825	-17.2307	-139.605	22.2598	-3.43213	-147.138	27.7964	27.107	-147.32	-23.0831	1.63965	-137.032	7.00825	8.9357	-156.667	19.4569	28.4206	-200.85	-32.7217	22.6471	-210.004	-36.6782	56.9232	-229.913	-8.56796	31.6861	
52	0.433333	-235.089	19.416	47.9899	-240.956	39.5057	32.7994	-259.373	52.6554	8.31114	-271.07	64.3287	2.92704	-209.51	0.403947	-34.2749	-200.686	-1.25624	-57.3244	-190.338	-7.53921	-81.9163	-173.541	2.66393	-32.9934	-155.407	29.2322	-27.0751	-163.888	39.348	12.0295	-157.781	-8.95066	-14.3307	-142.966	22.0479	-4.48068	-152.011	28.9712	27.8066	-146.872	-20.8709	1.78739	-139.483	8.48677	9.09172	-158.268	21.3035	34.01	-198.1	-35.2777	23.1818	-208.665	-41.8545	60.5579	-229.333	-14.2612	31.3916	
53	0.441667	-239.581	15.771	51.7169	-248.984	33.4474	29.7093	-265.397	44.607	11.1843	-276.33	54.5031	5.30065	-213.575	-3.45422	-33.1464	-205.137	-3.81607	-58.0711	-197.319	-7.70329	-79.0005	-180.607	3.34705	-33.2967	-159.719	30.5676	-24.5544	-167.668	36.4637	12.984	-162.979	-5.16136	-17.6232	-146.31	20.7337	-6.14488	-155.617	31.7499	22.6691	-151.083	-19.902	-0.87544	-143.967	9.20506	5.29568	-160.433	21.8056	28.9694	-197.26	-42.2453	28.3618	-207.382	-43.4741	59.8164	-230.555	-18.6041	32.9078	
54	0.45	-241.667	10.7734	48.5987	-250.385	27.5656	33.0653	-269.085	37.1976	13.6674	-281.766	46.5795	6.74854	-215.876	-7.23434	-33.2977	-208.329	-8.20005	-60.3697	-200.439	-11.192	-79.1962	-180.958	-2.50299	-31.4526	-165.134	30.0852	-24.0794	-173.482	36.4116	13.2106	-161.932	-8.92379	-15.7401	-147.73	22.3051	-4.54522	-159.8	31.1498	22.3866	-150.014	-17.6961	-2.06979	-144.964	9.71812	3.84091	-163.262	19.483	27.5183	-195.744	-43.4582	27.1032	-202.404	-44.3859	62.9184	-228.894	-21.1476	36.3982	
55	0.458333	-240.205	6.37101	52.0762	-255.572	23.1206	33.1406	-269.653	30.5153	14.7343	-290.439	39.1454	11.0881	-217.746	-11.1851	-29.823	-209.876	-10.6961	-56.3633	-202.117	-14.5551	-79.5999	-186.246	-2.59856	-31.435	-170.074	30.3173	-26.0147	-173.344	34.5259	10.9916	-167.794	-9.46845	-17.0964	-152.012	24.9981	-5.75492	-162.121	31.8592	21.9756	-150.2	-19.068	-1.93951	-147.39	9.31147	0.512693	-163.506	20.7015	30.688	-196.23	-41.8644	28.7909	-203.552	-44.4331	61.3467	-229.056	-26.995	41.0663	
56	0.466667	-242.391	3.0557	52.2947	-258.09	18.357	36.3665	-276.122	24.621	18.6112	-291.523	32.2028	15.9425	-220.7	-13.2299	-31.5155	-214.359	-11.9844	-55.1693	-206.812	-15.0227	-77.4608	-186.86	-2.89661	-32.3296	-171.285	28.6756	-24.2105	-177.564	31.6911	14.0954	-167.979	-9.74417	-16.4	-154.749	24.7803	-6.35336	-167.184	32.3809	22.8435	-154.184	-20.0954	-0.997458	-148.319	9.28396	-0.829064	-163.143	22.6401	28.1885	-191.13	-45.8095	26.3272	-199.08	-48.3985	65.5817	-227.508	-26.8673	38.7382	
57	0.475	-239.638	-0.0213738	57.9749	-254.476	13.2889	39.6241	-273.295	18.3349	17.9414	-291.267	24.4336	14.3483	-220.466	-15.0794	-32.2973	-212.56	-16.4986	-54.6476	-206.419	-18.7347	-78.9733	-186.721	-5.56011	-31.383	-173.32	24.9222	-27.6801	-180.915	30.9467	14.2615	-166.897	-5.83864	-18.3016	-158.406	25.5951	-9.22273	-166.423	32.564	19.7029	-151.651	-18.6389	-1.26808	-146.8	13.1407	2.05365	-162.561	25.6387	27.1852	-188.392	-44.8018	30.4763	-199.361	-46.9726	64.4114	-224.752	-31.382	43.0008	
